<svg xmlns="http://www.w3.org/2000/svg" version="1.1" xmlns:xlink="http://www.w3.org/1999/xlink" xmlns:svgjs="http://svgjs.dev/svgjs" viewBox="0 0 1920 1080"><rect width="1920" height="1080" fill="#d4d8e3"></rect><g transform="matrix(0.8131727983645296,0.8131727983645295,-0.8131727983645295,0.8131727983645296,612.1757216229582,-652.3743106449133)"><path d="M0,-1080C2.6947926471326156,-990.3868792235368,20.392436854348343,-696.4186788834667,16.168755882795693,-542.3212753412208C11.945074911243044,-388.223871798975,-34.45657586742545,-303.6061045281457,-25.342085829315906,-155.41557874652514C-16.22759579120636,-7.22505296490462,73.1681092671247,182.52631269847095,70.85569611145297,346.82187934850236C68.54328295578124,511.11744599853375,-23.22979674272593,672.7470312722537,-39.21656476334628,830.3578211536633C-55.20333278396662,987.9686110350729,-20.42459662737996,1146.9944785829305,-25.06491201226911,1292.4866186369595C-29.705227397158264,1437.9787586909886,-71.23594240805937,1558.725097917331,-67.0584570726812,1703.3106614778376C-62.88097173730301,1847.8962250383443,-11.176409512113532,2083.8851102463063,0,2160L 1920 2160 L 1920 -1080 Z" fill="url(&quot;#SvgjsLinearGradient1159&quot;)"></path><path d="M320,-1080C329.48640097117794,-982.1657740803985,363.07256658764675,-667.8788331863735,376.9184058270678,-492.99464448239087C390.7642450664888,-318.1104557784082,421.161025781518,-214.8572346423659,403.0750354365263,-30.69486777610433C384.98904509153465,153.46749909015725,276.8227110599877,426.5452706145859,268.40246375711763,611.9795567151788C259.9822164542476,797.4138428157717,351.3297163346731,906.2661895217058,352.55355161930584,1081.910848827453C353.7773869039386,1257.5555081332002,281.17106740146494,1486.1659873542378,275.74547546491397,1665.8475125496623C270.319883528363,1845.5290377450867,312.624245910819,2077.6412520916106,320,2160L 1920 2160 L 1920 -1080 Z" fill="url(&quot;#SvgjsLinearGradient1160&quot;)"></path><path d="M640,-1080C641.9480341558933,-975.3581291505047,659.3776163964442,-658.7669849892557,651.6882049353596,-452.1487749030282C643.9987934742751,-245.53056481680073,603.3384450848475,-56.189261989806624,593.8635312334927,159.70926051736478C584.3886173821379,375.60778302453616,597.9571481987349,618.2630414140536,594.8387218272308,843.2423601400002C591.7202954557266,1068.2216788659466,567.6260933090061,1290.1255662297106,575.1529730044676,1509.5851728730438C582.6798526999291,1729.044779516377,629.1921621674113,2051.597528812174,640,2160L 1920 2160 L 1920 -1080 Z" fill="url(&quot;#SvgjsLinearGradient1161&quot;)"></path><path d="M960,-1080C966.4522910471956,-972.9593934392947,997.1220484210451,-665.5783870102032,998.7137462831737,-437.75636063576803C1000.3054441453023,-209.93433426133288,968.4536538279618,69.57783728149695,969.5501871727716,286.93215824661104C970.6467205175815,504.2864792117251,994.3298034313821,665.2644006208654,1005.2929463520326,866.3695651549164C1016.2560892726831,1067.4747296889673,1042.8778690886804,1277.958072976736,1035.329044696675,1493.5631454509166C1027.7802203046697,1709.1682179250972,972.5548407827791,2048.927190908486,960,2160L 1920 2160 L 1920 -1080 Z" fill="url(&quot;#SvgjsLinearGradient1162&quot;)"></path><path d="M1280,-1080C1288.850373346422,-992.7903605131086,1319.6639462805504,-725.2365920482604,1333.1022400785314,-556.7421630786516C1346.5405338765124,-388.2477341090429,1358.9680309745402,-258.4336774137247,1360.6297627878866,-69.0334261823474C1362.2914946012331,120.3668250490299,1343.6881579545663,392.44204638004476,1343.0726309586107,579.6593443096123C1342.457103962655,766.8766422391798,1379.7226792076851,876.919816404186,1356.9366008121528,1054.2703613950578C1334.1505224166206,1231.6209063859296,1219.178927387442,1459.4743411540194,1206.3561605854165,1643.7626142548431C1193.5333937833911,1828.0508873556669,1267.7260267642362,2073.9604357091407,1280,2160L 1920 2160 L 1920 -1080 Z" fill="url(&quot;#SvgjsLinearGradient1163&quot;)"></path><path d="M1600,-1080C1588.9391950222855,-995.1018330935393,1527.2363975679054,-737.1576224821629,1533.6351701337135,-570.6109985612359C1540.0339426995215,-404.0643746403089,1641.5131103932972,-273.3903673781556,1638.3926353948475,-80.72025647443827C1635.2721603963978,111.94985442927903,1527.7440298169656,402.61499010541365,1514.912320143016,585.4096668610679C1502.0806104690662,768.2043436167221,1551.9937607563493,832.7791349721165,1561.4023773511497,1016.0478040594874C1570.81099394595,1199.3164731468582,1564.9310826036758,1494.3629820618744,1571.3640197118175,1685.021681385293C1577.7969568199592,1875.6803807087117,1595.2273366186362,2080.836946897549,1600,2160L 1920 2160 L 1920 -1080 Z" fill="url(&quot;#SvgjsLinearGradient1164&quot;)"></path></g><defs><linearGradient x1="0.1" y1="0" x2="0" y2="1" id="SvgjsLinearGradient1159"><stop stop-color="#d4d8e3" offset="0"></stop><stop stop-color="#d4dae3" offset="0"></stop></linearGradient><linearGradient x1="0.1" y1="0" x2="0" y2="1" id="SvgjsLinearGradient1160"><stop stop-color="#dcdfe8" offset="0"></stop><stop stop-color="#dce1e8" offset="0.16666666666666666"></stop></linearGradient><linearGradient x1="0.1" y1="0" x2="0" y2="1" id="SvgjsLinearGradient1161"><stop stop-color="#e4e6ed" offset="0"></stop><stop stop-color="#e4e7ed" offset="0.3333333333333333"></stop></linearGradient><linearGradient x1="0.1" y1="0" x2="0" y2="1" id="SvgjsLinearGradient1162"><stop stop-color="#ecedf2" offset="0"></stop><stop stop-color="#eceef2" offset="0.5"></stop></linearGradient><linearGradient x1="0.1" y1="0" x2="0" y2="1" id="SvgjsLinearGradient1163"><stop stop-color="#f3f4f7" offset="0"></stop><stop stop-color="#f3f5f7" offset="0.6666666666666666"></stop></linearGradient><linearGradient x1="0.1" y1="0" x2="0" y2="1" id="SvgjsLinearGradient1164"><stop stop-color="#fbfcfd" offset="0"></stop><stop stop-color="#fbfcfd" offset="0.8333333333333334"></stop></linearGradient></defs></svg>